<?xml version="1.0" standalone="no"?>
<!DOCTYPE svg PUBLIC "-//W3C//DTD SVG 20010904//EN"
 "http://www.w3.org/TR/2001/REC-SVG-20010904/DTD/svg10.dtd">
<svg version="1.0" xmlns="http://www.w3.org/2000/svg"
 width="812.000000pt" height="812.000000pt" viewBox="0 0 812.000000 812.000000"
 preserveAspectRatio="xMidYMid meet">
<metadata>
Created by potrace 1.11, written by Peter Selinger 2001-2013
</metadata>
<g transform="translate(0.000000,812.000000) scale(0.100000,-0.100000)"
fill="#000000" stroke="none">
<path d="M3925 8075 c-38 -24 -72 -42 -77 -39 -4 3 -8 0 -8 -5 0 -6 -7 -11
-15 -11 -8 0 -15 -4 -15 -8 0 -5 -19 -16 -42 -27 -24 -10 -54 -26 -68 -35 -14
-10 -28 -18 -33 -19 -15 -1 -82 -35 -89 -45 -4 -6 -8 -8 -8 -3 0 4 -17 -1 -39
-12 -21 -11 -41 -17 -45 -14 -3 4 -6 1 -6 -5 0 -7 -5 -12 -11 -12 -6 0 -25 -6
-42 -14 -38 -16 -65 -26 -73 -25 -4 0 -10 -3 -13 -8 -6 -8 -60 -30 -91 -38 -8
-2 -30 -11 -48 -20 -19 -10 -44 -18 -58 -19 -13 0 -24 -4 -24 -8 0 -5 -9 -8
-20 -8 -11 0 -20 -5 -20 -11 0 -5 -4 -8 -9 -4 -5 3 -25 -1 -43 -9 -52 -23 -72
-29 -85 -27 -6 1 -14 -3 -18 -9 -3 -5 -15 -10 -26 -10 -10 0 -27 -4 -37 -10
-18 -10 -205 -65 -362 -106 -8 -2 -33 -8 -55 -14 -22 -6 -49 -12 -60 -15 -11
-2 -33 -7 -50 -10 -16 -4 -37 -8 -45 -10 -8 -2 -17 -4 -20 -6 -3 -1 -9 -3 -15
-4 -5 -1 -28 -5 -50 -9 -22 -4 -47 -10 -55 -13 -8 -3 -24 -7 -35 -8 -88 -13
-110 -17 -120 -23 -5 -3 -21 -7 -35 -7 -14 -1 -38 -4 -55 -8 -16 -3 -50 -9
-75 -13 -50 -7 -79 -11 -130 -19 -58 -9 -134 -18 -264 -30 -33 -4 -63 -8 -67
-11 -4 -2 -10 0 -14 6 -4 6 -12 7 -18 3 -12 -8 -28 -9 -164 -15 -82 -3 -90 -6
-84 -40 0 -5 -2 -8 -7 -8 -4 0 -8 -12 -9 -27 -1 -26 -5 -51 -20 -133 -6 -36
-7 -46 -17 -135 -3 -27 -8 -66 -11 -85 -3 -19 -8 -57 -11 -85 -3 -27 -7 -66
-9 -85 -10 -82 -19 -209 -19 -267 -1 -35 -3 -63 -6 -63 -21 0 -17 -781 6
-1080 2 -36 6 -92 8 -125 3 -33 5 -60 6 -60 1 0 3 -11 5 -25 6 -56 15 -137 20
-175 3 -22 8 -56 10 -75 2 -19 5 -35 6 -35 0 0 3 -13 5 -30 1 -16 5 -45 8 -63
3 -18 8 -51 11 -73 4 -23 11 -53 16 -68 6 -14 10 -27 9 -29 -2 -2 11 -108 15
-122 3 -12 17 -90 17 -97 0 -5 4 -15 8 -23 4 -8 11 -31 14 -50 3 -19 8 -45 11
-57 3 -13 7 -33 10 -45 4 -19 13 -59 21 -90 1 -5 2 -9 4 -10 2 -3 7 -23 14
-59 3 -15 18 -67 32 -115 14 -49 32 -114 40 -144 8 -30 28 -94 44 -141 17 -48
30 -94 30 -103 0 -9 5 -16 10 -16 6 0 10 -8 10 -19 0 -10 7 -36 16 -57 9 -22
16 -41 16 -44 0 -3 5 -16 11 -30 5 -14 11 -32 13 -40 2 -8 7 -23 13 -35 10
-22 23 -54 27 -70 5 -23 86 -212 101 -240 10 -16 17 -32 16 -35 -1 -3 5 -20
13 -39 8 -18 14 -37 14 -42 0 -5 4 -9 8 -9 5 0 9 -6 9 -12 0 -7 37 -88 81
-179 45 -91 82 -169 82 -173 0 -4 9 -19 20 -33 11 -14 20 -34 20 -44 0 -11 4
-19 8 -19 5 0 19 -21 32 -47 13 -27 26 -50 29 -53 3 -3 13 -18 21 -35 8 -16
32 -59 53 -95 45 -75 74 -124 94 -160 13 -24 125 -194 207 -317 22 -32 43 -59
48 -61 4 -2 8 -10 8 -17 0 -7 4 -15 8 -17 5 -2 22 -23 39 -48 27 -40 41 -58
83 -107 5 -7 10 -17 10 -22 0 -6 6 -14 13 -18 6 -4 31 -33 53 -63 23 -30 50
-65 60 -77 42 -48 58 -68 56 -70 -1 -2 8 -13 21 -26 63 -65 117 -129 117 -137
0 -6 7 -10 17 -10 9 0 14 -2 11 -5 -3 -3 15 -27 39 -53 104 -109 276 -282 280
-282 2 0 22 -18 43 -40 21 -22 44 -40 50 -40 6 0 8 -4 5 -10 -3 -5 -1 -10 5
-10 6 0 28 -17 50 -37 21 -21 53 -49 70 -63 18 -14 39 -32 49 -40 9 -8 44 -35
76 -60 33 -25 62 -48 63 -52 2 -5 10 -8 18 -8 8 0 14 -5 14 -10 0 -6 12 -16
28 -22 15 -7 34 -19 42 -28 8 -8 27 -21 43 -29 15 -8 27 -18 27 -23 0 -4 6 -8
14 -8 8 0 21 -6 28 -13 15 -15 79 -53 158 -94 30 -15 58 -32 62 -38 5 -6 24
-1 52 14 25 13 48 23 53 23 4 0 12 6 16 14 4 8 12 14 17 14 9 0 213 133 237
154 32 29 43 36 52 36 5 0 11 3 13 8 2 4 35 31 73 61 39 30 72 58 73 63 2 4
10 8 18 8 8 0 14 5 14 10 0 6 11 15 25 22 13 6 22 15 19 19 -3 5 0 9 6 9 6 0
17 6 24 12 7 7 48 45 92 83 43 39 93 85 110 103 18 17 34 32 37 32 9 0 237
232 237 242 0 5 5 6 10 3 6 -3 10 -2 10 2 0 5 31 42 68 81 38 40 67 72 66 72
-2 0 9 13 24 28 53 55 188 212 211 246 8 12 18 23 21 26 3 3 24 27 45 55 22
27 46 56 53 63 6 7 12 16 12 20 0 4 15 24 33 44 17 20 50 62 72 94 22 31 50
68 62 83 13 14 23 31 23 38 0 6 4 13 8 15 5 2 23 26 42 53 18 28 38 53 44 57
6 4 7 8 3 8 -5 0 3 15 17 32 15 18 30 38 35 44 5 6 12 20 15 32 4 12 11 22 16
22 4 0 15 15 24 33 21 41 38 68 54 85 6 7 12 19 12 27 0 7 4 15 8 17 10 4 122
193 122 206 0 6 7 12 15 16 8 3 14 9 14 13 -3 10 12 46 21 53 15 12 180 343
174 351 -2 4 2 9 9 12 7 3 19 23 27 46 7 23 17 41 22 41 4 0 7 3 6 8 -1 4 3
17 10 28 6 12 8 24 5 28 -3 3 -1 6 5 6 7 0 11 3 10 8 -1 4 7 25 17 47 10 22
19 42 20 45 1 3 6 16 12 30 6 14 29 70 51 125 21 55 43 109 47 120 5 11 9 22
10 25 1 3 7 19 14 35 7 17 13 38 14 48 1 9 5 17 9 17 4 0 8 6 8 14 0 8 4 25 9
38 5 13 9 26 11 30 1 4 10 31 21 60 20 53 26 71 35 118 3 13 8 27 12 30 8 5
13 24 15 52 1 10 4 18 7 18 3 0 7 11 8 26 1 14 6 33 11 42 5 9 11 31 14 47 12
66 20 96 28 101 5 3 7 10 3 15 -3 5 0 16 6 24 7 8 10 15 8 15 -3 0 3 34 13 77
10 42 16 80 14 84 -3 4 -1 9 4 11 5 1 12 21 15 43 4 23 9 52 12 65 2 14 7 36
9 50 2 14 7 39 10 55 3 17 6 39 8 50 2 11 7 31 10 45 8 30 22 126 31 215 3 22
6 40 6 40 1 0 3 18 4 40 1 22 4 45 7 50 3 6 5 25 4 43 -1 17 1 32 4 32 3 0 6
19 5 43 0 23 2 46 5 51 2 5 5 39 6 75 0 36 3 71 6 76 7 12 9 747 2 758 -4 7
-14 153 -17 245 -1 17 -4 32 -7 32 -3 0 -6 12 -6 28 -1 33 -10 124 -17 172 -3
19 -8 55 -12 80 -11 86 -23 156 -40 245 -3 17 -8 48 -11 70 -3 22 -8 42 -12
45 -3 3 -7 19 -8 35 -1 34 -9 71 -17 83 -3 5 -6 26 -8 46 -1 21 -6 40 -10 42
-4 3 -8 18 -8 34 0 23 -14 69 -26 89 -2 1 -19 5 -40 7 -20 2 -53 6 -73 10 -20
3 -45 7 -56 9 -11 1 -43 6 -70 11 -28 4 -62 8 -77 8 -16 1 -28 4 -28 7 0 3 -6
6 -12 6 -12 1 -102 15 -173 28 -16 3 -41 7 -55 9 -14 3 -25 5 -25 6 0 2 -24 7
-71 14 -22 4 -54 10 -70 15 -16 4 -37 7 -46 5 -10 -1 -18 1 -18 5 0 4 -17 8
-37 9 -21 2 -40 6 -43 10 -6 8 -17 11 -59 14 -17 1 -31 6 -31 11 0 4 -4 6 -8
3 -7 -4 -117 18 -152 32 -8 3 -17 6 -20 7 -28 7 -111 27 -121 29 -8 2 -25 7
-39 13 -14 6 -43 14 -65 18 -44 9 -43 9 -65 18 -28 10 -95 30 -110 32 -8 1
-22 5 -30 8 -32 12 -143 49 -154 52 -6 1 -19 5 -28 9 -9 4 -23 9 -32 10 -8 1
-19 5 -22 9 -4 4 -18 7 -31 7 -12 0 -23 4 -23 10 0 5 -6 7 -14 4 -8 -3 -17 0
-21 5 -3 6 -10 9 -15 6 -5 -3 -11 -1 -15 5 -3 5 -16 10 -29 10 -12 0 -26 4
-31 8 -6 5 -30 15 -55 22 -25 7 -49 16 -55 19 -5 3 -16 6 -23 7 -8 2 -21 6
-30 10 -21 8 -171 62 -192 68 -8 3 -38 14 -67 24 -28 11 -54 17 -57 14 -3 -3
-6 0 -6 6 0 7 -6 12 -14 12 -8 0 -27 5 -43 12 -15 6 -30 12 -33 13 -18 4 -87
29 -95 34 -5 3 -16 6 -24 7 -7 2 -36 11 -65 22 -73 28 -90 35 -101 38 -5 1
-26 9 -46 18 -36 15 -36 15 -104 -29z"/>
</g>
</svg>
