<svg id="Layer_1" data-name="Layer 1" xmlns="http://www.w3.org/2000/svg" viewBox="0 0 184.84 201.06"><defs><style>.cls-1{fill:#e5e5e5;}</style></defs><title>Artboard 1</title><path class="cls-1" d="M1.84,21.32c27-1,57-11,71-20,33,12,45,16,72,20,23,95-45,163-72,178-31-16-81-80-71-156"/><path d="M1.84,21.17a159.32,159.32,0,0,0,18.41-2.35q9.11-1.72,18-4.27a170.07,170.07,0,0,0,17.49-6A106.39,106.39,0,0,0,72.2.32L72.7,0l.56.2c11.75,4.19,23.5,8.41,35.39,12,6,1.77,11.95,3.35,18,4.67s12.19,2.44,18.34,3.43l.7.11.15.66a167,167,0,0,1,3.66,51,167.65,167.65,0,0,1-4.08,25.3q-1.52,6.23-3.52,12.33t-4.39,12.06A181,181,0,0,1,111.56,166a173.53,173.53,0,0,1-17.42,19c-3.15,2.93-6.4,5.75-9.8,8.4a89.11,89.11,0,0,1-10.75,7.31l-.71.4-.73-.38a88.12,88.12,0,0,1-18.6-13.37A145.69,145.69,0,0,1,38,170.65a176.38,176.38,0,0,1-23.52-38.8,177.76,177.76,0,0,1-7.88-21.29,162.69,162.69,0,0,1-4.9-22.15,150.44,150.44,0,0,1,0-45.11l.3,0A159.67,159.67,0,0,0,3.47,88.13a174.34,174.34,0,0,0,13.45,42.62,182.2,182.2,0,0,0,10.63,19.68,174.25,174.25,0,0,0,12.92,18.23A151,151,0,0,0,55.7,185a88.83,88.83,0,0,0,17.85,13l-1.44,0a86.23,86.23,0,0,0,10.44-7c3.35-2.55,6.56-5.3,9.68-8.15a185.1,185.1,0,0,0,17.4-18.45,184,184,0,0,0,26.59-43.17q2.54-5.84,4.61-11.87t3.6-12.22A148.27,148.27,0,0,0,148.55,72a155.9,155.9,0,0,0-4.7-50.48l.85.77c-6.2-.85-12.4-1.77-18.55-3s-12.26-2.76-18.27-4.56S95.93,11,90,8.86,78.29,4.61,72.44,2.45l1.05-.12a100.16,100.16,0,0,1-16.93,8.19,172,172,0,0,1-17.83,5.66,165.66,165.66,0,0,1-18.3,3.73A139.57,139.57,0,0,1,1.85,21.47Z"/><path d="M32.74,71.32l-.3-7.82c-.1-2.61-.23-5.21-.28-7.83s-.1-5.23.08-7.88a29,29,0,0,1,.56-4A19.05,19.05,0,0,1,34.15,40l.37-.78.74.47a62.08,62.08,0,0,1,8.24,6.2,81.47,81.47,0,0,1,7.21,7.33A98.79,98.79,0,0,1,57,61.29,101.13,101.13,0,0,1,62.41,70l-.56-.33c7.33.13,14.67.31,22,.33l-.28.17q2-4,4.17-7.88c1.42-2.61,2.89-5.19,4.41-7.75s3.05-5.11,4.72-7.58a54.49,54.49,0,0,1,5.51-7.12l.49-.51.49.54a22.93,22.93,0,0,1,4.23,6.88,35.35,35.35,0,0,1,2.09,7.76,52,52,0,0,1,.59,8,75.9,75.9,0,0,1-.42,7.95l0-.32a70.06,70.06,0,0,1,1.91,21.15,51.77,51.77,0,0,1-1.91,10.53,45.65,45.65,0,0,1-4.23,9.83,49.87,49.87,0,0,1-6.3,8.62,55.38,55.38,0,0,1-7.91,7.09,78.74,78.74,0,0,1-18.49,10.08l-.08-.18c3.14-1.54,6.29-3.07,9.25-4.92,1.51-.87,2.94-1.87,4.4-2.81s2.83-2,4.16-3.13a60.39,60.39,0,0,0,7.48-7.17,48.16,48.16,0,0,0,5.88-8.46,47.21,47.21,0,0,0,3.87-9.51,50.84,50.84,0,0,0,1.73-10.12,59.57,59.57,0,0,0-.13-10.31,83.14,83.14,0,0,0-1.58-10.25l0-.17,0-.16a62.34,62.34,0,0,0,.07-15.44,33.69,33.69,0,0,0-1.81-7.44,22.72,22.72,0,0,0-3.77-6.57l1,0a52,52,0,0,0-5.61,6.76C96,50,94.36,52.43,92.79,54.94s-3,5.09-4.49,7.67-2.86,5.2-4.17,7.85l-.09.17h-.2c-7.33,0-14.67.19-22,.33h-.36l-.2-.34c-1.71-2.87-3.63-5.67-5.63-8.38s-4.1-5.34-6.3-7.89a91.39,91.39,0,0,0-7-7.22A66.53,66.53,0,0,0,34.43,41l1.11-.31a20.8,20.8,0,0,0-2,7.24c-.27,2.55-.32,5.15-.36,7.75-.05,5.21-.08,10.44-.28,15.65Z"/><path d="M174.71,71.38l-.84-1.23c-.27-.41-.61-.76-.9-1.14a13.43,13.43,0,0,0-1-1,6.18,6.18,0,0,0-1.09-.72,3.24,3.24,0,0,0-2.25-.3,4.44,4.44,0,0,0-2,1.14l-.14.12a17.46,17.46,0,0,0-3.15,3.45,27.21,27.21,0,0,0-2.32,4.18,51.33,51.33,0,0,0-3.25,9.42,62,62,0,0,0-1.38,10.06c-.22,3.39-.28,6.81-.61,10.22A66.67,66.67,0,0,1,154,115.83a31.1,31.1,0,0,1-4.24,9.71,22.14,22.14,0,0,1-7.88,7.21,24.16,24.16,0,0,1-10,2.73l-.05-.3a32.32,32.32,0,0,0,8.95-4.29,23.43,23.43,0,0,0,6.44-7c3.3-5.5,5-12,6.22-18.62.67-3.3,1.35-6.64,1.88-10s.93-6.73,1.31-10.14a41.18,41.18,0,0,1,2-10.21,18,18,0,0,1,6.49-8.54l-.14.12a6.29,6.29,0,0,1,1.54-1,5.79,5.79,0,0,1,1.75-.49,4.76,4.76,0,0,1,3.43.93A6.64,6.64,0,0,1,173,67.08a14.36,14.36,0,0,1,.88,1.33c.23.47.47.93.65,1.4s.33,1,.49,1.45Z"/></svg>